<svg width="412" height="543" viewBox="0 0 412 543" fill="none" xmlns="http://www.w3.org/2000/svg">
<g opacity="0.8">
<path fill-rule="evenodd" clip-rule="evenodd" d="M115.676 354.183C95.5537 340.363 117.949 287.016 93.6519 284.876C59.0408 281.826 43.5108 351.182 9.3515 344.815C-15.1988 340.239 15.0762 294.604 26.5547 272.369C35.3798 255.274 64.3511 251.364 67.4049 232.36C69.5595 218.952 40.6968 218.663 37.2974 205.516C34.812 195.905 46.2348 187.222 54.2109 181.337C61.9933 175.596 78.8479 182.058 81.657 172.789C91.3501 140.804 54.3462 66.2417 86.8929 73.4951C124.54 81.8852 107.985 147.172 124.18 182.265C126.577 187.462 134.265 188.567 139.975 188.528C152.417 188.442 163.993 180.846 176.391 181.905C194.12 183.42 215.809 182.477 227.416 195.999C236.623 206.724 223.202 223.902 224.535 237.989C226.162 255.177 246.354 274.121 236.127 288.011C224.713 303.513 197.4 290.505 179.94 298.555C168.327 303.91 163.288 317.683 153.612 326.059C141.606 336.452 128.762 363.171 115.676 354.183Z" fill="#C2E1B7"/>
<path fill-rule="evenodd" clip-rule="evenodd" d="M284.847 195.756C299.326 201.298 319.652 175.928 332.109 186.231C344.303 196.316 340.151 223.436 342.184 243.178C343.823 259.101 294.257 235.421 291.505 252.001C288.978 267.222 257.975 300.599 260.005 315.001C263.879 342.496 366.642 374.532 358.646 402.983C351.899 426.984 318.337 400.423 303.544 418.14C287.246 437.659 296.279 476.175 280.55 496.515C267.107 513.897 238.803 531.406 228.908 514.65C211.565 485.28 247.23 414.781 222.003 397.368C198.939 381.447 167.978 475.245 145.902 457.353C126.308 441.473 178.024 399.522 184.262 366.78C186.836 353.273 172.079 347.546 169.154 335.314C165.858 321.528 167.069 306.055 166.185 291.182C164.821 268.246 156.1 245.933 162.466 222.856C168.366 201.47 183.963 184.428 198.974 172.327C214.051 160.173 232.331 149.751 247.888 153.995C264.574 158.548 268.646 189.555 284.847 195.756Z" fill="#BBD3E6"/>
<path fill-rule="evenodd" clip-rule="evenodd" d="M215.776 83.6907C218.363 87.3336 225.419 86.046 229.031 83.4252C256.652 63.3853 275.531 3.63975 306.538 17.8409C334.784 30.778 250.499 66.4325 257.97 96.6792C263.749 120.077 308.901 93.5174 328.627 107.271C341.443 116.207 350.261 142.551 338.462 152.801C320.894 168.062 292.776 157.055 269.59 158.553C260.085 159.168 248.254 152.589 241.265 159.083C231.985 167.707 237.196 184.596 230.191 195.165C221.167 208.781 210.598 223.649 195.11 228.725C181.183 233.289 162.557 231.174 152.273 220.703C141.019 209.245 143.494 190.054 141.455 174.096C139.955 162.354 146.094 149.919 141.819 138.886C136.973 126.377 109.374 120.126 116.036 108.49C125.03 92.7818 162.324 111.029 167.674 93.7265C174.292 72.3223 138.429 55.8858 139.227 33.4888C139.766 18.358 158.325 -6.63963 170.953 1.64225C197.192 18.8501 197.584 58.0732 215.776 83.6907Z" fill="#F7C6BC"/>
</g>
</svg>
