<svg width="30" height="30" viewBox="0 0 30 30" fill="none" xmlns="http://www.w3.org/2000/svg">
<g clip-path="url(#clip0_885_136)">
<path d="M28.5 0H1.5C1.10218 0 0.720644 0.158035 0.43934 0.43934C0.158035 0.720644 0 1.10218 0 1.5V28.5C0 28.8978 0.158035 29.2794 0.43934 29.5607C0.720644 29.842 1.10218 30 1.5 30H28.5C28.8978 30 29.2794 29.842 29.5607 29.5607C29.842 29.2794 30 28.8978 30 28.5V1.5C30 1.10218 29.842 0.720644 29.5607 0.43934C29.2794 0.158035 28.8978 0 28.5 0ZM21.4155 14.7825C20.8965 18.0345 20.3325 21.5895 20.3325 21.5895C20.3325 21.5895 20.2455 22.587 19.509 22.7595C18.7199 22.7474 17.9573 22.473 17.3415 21.9795C17.1675 21.849 14.0895 19.899 12.963 18.945C12.8481 18.8674 12.7547 18.762 12.6916 18.6386C12.6285 18.5152 12.5977 18.3778 12.602 18.2393C12.6063 18.1007 12.6457 17.9655 12.7165 17.8463C12.7872 17.7271 12.887 17.6277 13.0065 17.5575C14.5665 16.1265 16.431 14.349 17.5575 13.2225C18.078 12.702 18.5985 11.4885 16.431 12.963C13.353 15.087 10.3185 17.0805 10.3185 17.0805C10.006 17.2215 9.66821 17.298 9.32543 17.3055C8.98265 17.313 8.64188 17.2512 8.3235 17.124C7.023 16.734 5.5065 16.2135 5.5065 16.2135C5.5065 16.2135 4.4655 15.564 6.243 14.8635C6.243 14.8635 13.743 11.7855 16.344 10.7025C17.3415 10.269 20.7225 8.8815 20.7225 8.8815C20.7225 8.8815 22.284 8.274 22.1535 9.7485C22.11 10.362 21.7635 12.486 21.4155 14.7825Z" fill="currentColor"/>
</g>
<defs>
<clipPath id="clip0_885_136">
<rect width="30" height="30" fill="white"/>
</clipPath>
</defs>
</svg>
